@startuml
skinparam monochrome true
skinparam packageStyle rectangle
skinparam shadowing false

'left to right direction

skinparam classAttributeIconSize 0

hide circle
hide methods

'title Domain Model

'class Platform {
'  -description
'}

class Customer{
}

class Property{
 area
 distanceCityCenter
}

class Order {
orderAmount
acceptanceAnswer
}

class Announcement{
acceptanceDate
}

class Request{
requestDate
}

class Residence{
numberBedrooms
numberBathrooms
parkingSpace
}

class AvailableEquipment{
description
}

class House{
 basement
 inhabitableLoft
 sunExposure
}

class PropertyType{
designation
}

class ResidenceType{
designation
}

class Photograph{
uri
}

class Location{
streetName
city
district
state
zipCode
}

class Business{
price
}

class BusinessType{
designation
}

class Lease{
contractDuration
}





Customer "1" -- "*" Order : places a >
Order "*" -up- "1" Announcement : is associated to >
Announcement "1" - "1" Request : is  based on >
Property "1" -up--- "1" Request : < has information about
Residence  --|>  Property
House --|> Residence
PropertyType "1" -- "1" Property: is a description of >
ResidenceType "1" -- "1" Residence: is a description of >
Property "1" -- "1..*" Photograph: contains >
Property "1"--"1" Location: has address >
Residence "1" -left "*"AvailableEquipment: includes >
Property "1" -up- "1" Request : < has information about
Request "1" -- "1" Business: is described by >
Business <|-- Lease
BusinessType "1" -- "1" Business : describes >


@enduml