@startuml
'skinparam monochrome true
skinparam packageStyle rectangle
skinparam shadowing false
skinparam linetype polyline
'skinparam linetype orto

skinparam classAttributeIconSize 0

'left to right direction


class Employee {
    - name
    - email
    - role
    - phone
}

class Person {
 - passportCardNumber
 - taxNumber
 - phoneNumber

  - addEmployee(employee)
     - validateEmployee(employee)
     + Role(Agent, StoreManager, NetworkManager)
     + registerEmployee(name, passportCardNumber,\n taxNumber, location, email, phoneNumber)

 '  +saveTask(task)
}


class Agency {

}

class Role {
    - String Agent
    - String StoreManager
    - String NetworkManager
}

class AgencyRepository {
}

class RoleRepository{
}


class Repositories {
    - Repositories()
    + getInstance() : Repositories
    + getAgencyRepository()
    + getRoleRepository()
}

class RegisterEmployeeController {
    + RegisterEmployeeController(roleRepository, agencyRepository)
    + getAgency()
    + getRole()
}



note bottom of AgencyRepository
    - used for displaying
    the agency list
end note

note bottom of RoleRepository
 - used for displaying
 the role list
end note

class RegisterEmployeeUI {
}

Repositories -> Repositories : instance
ApplicationSession -> ApplicationSession : instance

RegisterEmployeeUI .> RegisterEmployeeController

RegisterEmployeeController .> Repositories : repositories

Repositories -> "1" AgencyRepository

RegisterEmployeeController ..> Agency
RegisterEmployeeController ..> RoleRepository : roleRepository
RegisterEmployeeController ..> AgencyRepository : agencyRepository

Repositories --> "1" RoleRepository

RoleRepository --> "*" Role

RegisterEmployeeController ..> "1" Role : role
Agency "*" --> "1" Agency : agency
AgencyRepository "1" --> "*" Agency : agency
Role "1" --> "*" Agency : tasks
Agency --> Employee : employs

Role --> "*" Employee : employs

Person  <|-- Employee : isA

@enduml