@startuml
skinparam monochrome true
skinparam packageStyle rectangle
skinparam shadowing false

'left to right direction

skinparam classAttributeIconSize 0

hide circle
hide methods

class SystemAdministrator {}


class Employee {}


class Agent{
}

class StoreManager{
}
class NetworkManager{
}

class Person{
passportCardNumber
taxNumber
phoneNumber
}


class Location{
streetName
city
district
state
zipCode
}

class Agency {
designation
emailAddress
contactNumber
}



SystemAdministrator -|> Employee
SystemAdministrator "1" -- "*" Employee: registers >
SystemAdministrator "1" -up- "*" Agency: registers >
Person "1" -- "1" Location: has address >
Employee "1" -- "1" Agency: works in  >
Role "1" -- "1" Employee: knows  >
Person  <|-up-  Employee
Agent  --|> Employee
StoreManager --|> Employee
NetworkManager --|> Employee


@enduml